<?xml version="1.0" standalone="no"?>
<!DOCTYPE svg PUBLIC "-//W3C//DTD SVG 20010904//EN"
 "http://www.w3.org/TR/2001/REC-SVG-20010904/DTD/svg10.dtd">
<svg version="1.0" xmlns="http://www.w3.org/2000/svg"
 width="250.000000pt" height="250.000000pt" viewBox="0 0 250.000000 250.000000"
 preserveAspectRatio="xMidYMid meet">

<g transform="translate(0.000000,250.000000) scale(0.100000,-0.100000)"
fill="#000000" stroke="none">
<path d="M1160 2313 c-174 -15 -359 -80 -505 -177 -77 -52 -240 -215 -288
-287 -59 -91 -132 -247 -138 -294 -1 -5 -6 -21 -11 -35 -34 -85 -43 -323 -18
-462 72 -394 392 -740 776 -838 383 -98 775 13 1042 295 187 197 284 425 296
690 21 474 -279 906 -736 1058 -43 14 -103 30 -135 36 -71 12 -222 20 -283 14z
m345 -141 c314 -92 558 -326 655 -630 163 -507 -116 -1045 -625 -1205 -446
-140 -925 66 -1135 488 -77 154 -94 229 -94 415 -1 163 6 212 51 335 110 303
368 531 686 605 112 27 358 22 462 -8z"/>
<path d="M1062 1974 c-21 -14 -22 -22 -22 -160 l0 -144 -159 0 c-132 0 -162
-3 -175 -16 -14 -13 -16 -65 -16 -409 0 -391 0 -394 21 -406 13 -6 83 -11 173
-12 l151 -2 5 -143 c4 -127 7 -145 24 -158 25 -18 36 -18 64 2 21 14 22 22 22
160 l0 144 100 0 100 0 0 -140 c0 -127 2 -142 20 -160 25 -25 52 -26 73 -2 14
15 17 42 17 160 l0 142 156 0 c88 0 164 4 175 10 18 10 19 23 19 228 0 156 -3
221 -12 230 -9 9 -105 12 -368 12 -333 0 -358 -1 -373 -18 -22 -25 -21 -48 3
-72 19 -19 33 -20 330 -20 l310 0 0 -130 0 -130 -450 0 -450 0 0 310 0 310
488 0 c461 0 490 1 505 18 21 23 22 56 1 76 -13 13 -43 16 -175 16 l-159 0 0
144 c0 138 -1 146 -22 160 -30 21 -44 20 -68 -4 -18 -18 -20 -33 -20 -160 l0
-140 -100 0 -100 0 0 140 c0 127 -2 142 -20 160 -24 24 -38 25 -68 4z"/>
</g>
</svg>
